<svg id="图层_1" data-name="图层 1" xmlns="http://www.w3.org/2000/svg" viewBox="0 0 516.83 286.26"><defs><style>.cls-1{fill:#348bcc;fill-rule:evenodd;}</style></defs><title>Coolkit  LOGO</title><path class="cls-1" d="M49.75,176.6s54.64-68,266.55-60.08c59.61,2.24,165.58,20.11,217.91,61.74,43.61,34.7,35.88,69.13-9.63,97.55-83.85,52.34-248.48,45.4-331.77,29.26,2.35.76,142,10.24,234.25-26.78,40.45-16.23,98.35-54.76,50.84-99.62-7.74-7.3-17.57-13.64-28.71-19.13-50.91-25.07-129.34-32.47-161.65-33.44C213.92,123.87,109.5,135.45,49.75,176.6Z" transform="translate(-46.3 -115.87)"/><path class="cls-1" d="M95.57,238.61l16.74,5.65a54.26,54.26,0,0,1-10.56,13.14,41.53,41.53,0,0,1-12.87,8,44.93,44.93,0,0,1-16.24,2.69c-7.53,0-13.27-1.1-17.29-3.27s-6.74-6-8.28-11.52-.79-12.53,2.22-21.08q6-17.15,18.37-26.35t29.07-9.2q13,0,18.69,5.27c3.73,3.52,5.55,8.93,5.39,16.23l-20.28,4.17a12.41,12.41,0,0,0-.46-4.59A7.45,7.45,0,0,0,97,214a9.91,9.91,0,0,0-5.34-1.32q-7.29,0-13.2,5.82c-3,2.88-5.53,7.42-7.69,13.58-2.69,7.65-3.37,12.88-2,15.73S72.83,252,77,252a16.34,16.34,0,0,0,10.48-3.45A33.76,33.76,0,0,0,95.57,238.61Z" transform="translate(-46.3 -115.87)"/><path class="cls-1" d="M117.63,242A38.77,38.77,0,0,1,132,223.07a39.21,39.21,0,0,1,23.46-7.43q15,0,19.63,8.73,3.67,7,.08,17.33a38.78,38.78,0,0,1-14.31,19,39.51,39.51,0,0,1-23.76,7.39c-8,0-13.81-2.05-17.32-6.15q-6.48-7.59-2.14-19.91Zm19.22,0q-2.37,6.72-.79,9.94c1.05,2.14,2.92,3.22,5.65,3.22A12.16,12.16,0,0,0,149.6,252c2.51-2.11,4.59-5.51,6.23-10.17,1.53-4.36,1.78-7.59.74-9.73a5.6,5.6,0,0,0-5.51-3.19,12.36,12.36,0,0,0-8,3.24Q139.16,235.36,136.85,242Z" transform="translate(-46.3 -115.87)"/><path class="cls-1" d="M180.92,242a38.71,38.71,0,0,1,14.36-18.92,39.21,39.21,0,0,1,23.46-7.43q15,0,19.63,8.73,3.67,7,.08,17.33a38.78,38.78,0,0,1-14.31,19,39.53,39.53,0,0,1-23.76,7.39q-12,0-17.32-6.15-6.48-7.59-2.14-19.91Zm19.21,0c-1.57,4.48-1.84,7.8-.78,9.94s2.92,3.22,5.65,3.22a12.18,12.18,0,0,0,7.89-3.17c2.51-2.11,4.59-5.51,6.22-10.17,1.53-4.36,1.79-7.59.75-9.73a5.6,5.6,0,0,0-5.51-3.19,12.36,12.36,0,0,0-8,3.24Q202.45,235.36,200.13,242Z" transform="translate(-46.3 -115.87)"/><polygon class="cls-1" points="214.41 83.07 235.83 83.07 211.56 152.18 190.13 152.18 214.41 83.07"/><polygon class="cls-1" points="248.87 83.07 270.2 83.07 261.03 109.18 292.58 83.07 320.97 83.07 286.63 109.03 297.86 152.18 271.59 152.18 266.98 123.8 251.84 135.35 245.93 152.18 224.6 152.18 248.87 83.07"/><path class="cls-1" d="M373.81,198.94H393l-4.58,13h-19.2l4.57-13Zm-6.67,19h19.2l-17.59,50.09H349.54Z" transform="translate(-46.3 -115.87)"/><path class="cls-1" d="M427.92,197.78l-6.68,19h10.52l-4.95,14.09H416.29l-6.23,17.73q-1.11,3.18-.87,4.23c.25,1.06,1.18,1.59,2.75,1.59a25.38,25.38,0,0,0,6.38-1.22l-3.24,13.27a70.1,70.1,0,0,1-13.84,1.56c-4.78,0-8.08-.61-9.92-1.84a7,7,0,0,1-3.06-5.58c-.2-2.49.67-6.55,2.63-12.13l6.19-17.61h-7L395,216.8h7l3.23-9.19Z" transform="translate(-46.3 -115.87)"/><path class="cls-1" d="M185.58,349.27h27.94v6.44H205.6v4.92h6.89v41.16h-5.65v-3.68H192.71v3.56H187v-41h6.9v-4.92h-8.32v-6.44ZM216,378.44h23.24v23.35h-6.11v-3h-11v3H216V378.44Zm-1.36-10.12h10.74v-7.24h-4.86q-.57,2.94-1.24,5.83a54.41,54.41,0,0,0-5.88-1.53,74.06,74.06,0,0,0,3.06-16.45l5.82.62q-.28,2.71-.74,5.43h3.84v-8.43h6.45V355h7.74v6.1h-7.74v7.24h9.38v6.17H214.64v-6.17Zm18.49,16h-11v8.59h11v-8.59Zm-37.48-2.38c-1-.94-2-1.82-2.94-2.65v3.84h14.13v-3.34h-1.13q-4.69,0-4.69-5.08v-8.15h-2.43q-.18,10.41-2.94,15.38Zm-2.94,10.3h14.13v-3.51H192.71v3.51ZM207.52,375h.34v-8.48H205.6v6.34c0,1.43.64,2.14,1.92,2.14Zm-15.77,2q2.1-3.27,2.09-10.52h-2.09v10.52Zm6.9-16.45H201v-4.92h-2.37Z" transform="translate(-46.3 -115.87)"/><path class="cls-1" d="M328.54,382.52l18.37-1.67V346.39h8v33.73l7.69-.72.63,7.18-8.32.77V402h-8V388.05l-17.4,1.59-1-7.12Zm-21.76,1.69a50.1,50.1,0,0,0,8.33-14.3h-7.82v-7.3h8.08v-6.32l-6.84.61a65.52,65.52,0,0,0-1.3-6.72q11.72-.9,21.59-2.32l2.15,6.61c-2.54.36-5.29.72-8.26,1v7.09h7.36v7.3h-7.36v4.86l2.73-2.55c2.71,2.41,5,4.61,6.88,6.56l-4.74,4.3c-1.87-2.18-3.49-4-4.87-5.51V402h-7.34v-19.1a74.61,74.61,0,0,1-6,10.4c-.65-2.49-1.51-5.5-2.6-9.05Zm30.13-33.81c2.86,2.11,6,4.76,9.55,7.92l-5.26,5.2a81.37,81.37,0,0,0-9-8.31l4.75-4.81ZM335,364.77a117.81,117.81,0,0,1,9.66,8l-5.31,5.15a82.57,82.57,0,0,0-9.16-8.2Z" transform="translate(-46.3 -115.87)"/><path class="cls-1" d="M292.14,384.26q4.47,1.92,8.54,3.28c-.8,3.43-1.51,6.17-2.15,8.2-.9,3.84-4.34,5.8-10.29,5.88H275q-9.45-.75-9.44-10.86v-4.63l-18.38,1.58-.68-7.52,19.12-1.63v-4.41l-9.84.89-1-7.51q18.43-1.42,35-4.24l1.52,7q-8.72,1.57-17.3,2.6v4.91l27.36-2.43.62,7.47-28,2.49v4.35q0,4.63,4.41,4.63H286q4.69.18,5.37-4.35.4-2.49.79-5.71ZM257,366.56H248.9v-13.5h21.88q-1.14-3-1.93-4.92l9.39-1.41c.56,1.47,1.32,3.58,2.25,6.33h20v14.07h-8.15v-7.06H257Z" transform="translate(-46.3 -115.87)"/><path class="cls-1" d="M422.6,361.08H408.82v6.28h12.37v6.84a43,43,0,0,1-10.06,14.61,60.55,60.55,0,0,0,12.72,5.34q-2.78,4.82-4.58,7.64a62.24,62.24,0,0,1-14.58-7.72,73.32,73.32,0,0,1-15.78,8.06q-1.86-3.18-4.46-7.35a72.64,72.64,0,0,0,13.76-6.08,63.89,63.89,0,0,1-8.62-10.26l6.38-3.79a41,41,0,0,0,8.54,9.61,30,30,0,0,0,7.75-9.83H388.12v-7.07h12.55v-6.28H388.24V354.3h12.43v-8.08h8.15v8.08H422.6v6.78Zm-54.32-4.92h6.33v-9.94h7.3v9.94h4.8v7.36h-4.8V372l5.08-1.1q-.28,4.86-.23,7.41l-4.85,1.18v14.81a7.58,7.58,0,0,1-1.85,5.56c-1.22,1.23-4.53,1.85-9.91,1.85-.38-1.89-1-4.45-1.92-7.69,1.46.11,2.73.17,3.78.17a2.66,2.66,0,0,0,2.06-.62,3.31,3.31,0,0,0,.54-2.15V381.29l-6.1,1.56-.8-8.08,6.9-1.28v-10h-6.33Z" transform="translate(-46.3 -115.87)"/></svg>